Coordinates
version=1
nRows=9
nColumns=36
inDegrees=yes

Units are S.I. units (second, meters, Newtons, ...)
If the header above contains a line with 'inDegrees', this indicates whether rotational values are in degrees (yes) or radians (no).

endheader
time	pelvis_tilt	pelvis_list	pelvis_rotation	pelvis_tx	pelvis_ty	pelvis_tz	hip_flexion_r	hip_adduction_r	hip_rotation_r	knee_angle_r	knee_angle_r_beta	ankle_angle_r	subtalar_angle_r	mtp_angle_r	hip_flexion_l	hip_adduction_l	hip_rotation_l	knee_angle_l	knee_angle_l_beta	ankle_angle_l	subtalar_angle_l	mtp_angle_l	lumbar_extension	lumbar_bending	lumbar_rotation	arm_flex_r	arm_add_r	arm_rot_r	elbow_flex_r	pro_sup_r	arm_flex_l	arm_add_l	arm_rot_l	elbow_flex_l	pro_sup_l
      0.00000000	      1.86412367	      1.10741607	   -168.33258961	      0.43160911	      1.00262127	      0.67388493	      8.37842046	      3.78713426	      3.15760402	     20.31473688	      0.35455905	      4.46301668	    -10.15834912	     -7.38798801	     29.64059796	     -3.79635382	     -1.02426566	     45.04271006	      0.78614359	    -11.73026668	    -20.86217988	     -7.38798801	    -19.14861386	     -0.22695107	      5.52568635	      5.29848007	    -14.24088511	    -16.33094345	     34.21509890	     91.95660328	     21.01707553	     -8.74455243	      8.11870331	     26.94240500	     86.52607219
      0.01666670	      2.12730667	      1.57310827	   -170.10570571	      0.42938428	      0.99778265	      0.67201847	      8.61351905	      4.76459750	      6.27619468	     21.57559101	      0.37656510	      4.44066767	    -10.00395170	     -7.39629749	     30.25689776	     -6.02175334	     -5.26045628	     41.45185947	      0.72347143	    -11.99603778	    -18.55747736	     -7.39629749	    -18.24085320	     -0.78193870	      7.42700718	      6.22463805	    -15.36902310	    -13.16913739	     33.63053760	     92.21996056	     21.58443732	     -7.80077524	      6.75935450	     24.06793048	     86.06492149
      0.03333330	      2.69262061	      2.39369537	   -170.66970907	      0.42747562	      0.99156671	      0.67161963	      8.84889746	      5.81100515	      6.41466856	     22.17618704	      0.38704748	      5.25884954	     -9.51142039	     -7.40448521	     31.23884230	     -7.29921524	     -7.03792759	     37.50698444	      0.65462037	    -13.84463852	    -18.55777644	     -7.40448521	    -16.75666592	     -0.41761068	      8.05934179	      6.88862166	    -16.17206194	    -10.25849710	     33.19867941	     91.41709311	     20.27402982	     -6.96752646	      4.58027442	     21.26480482	     85.62528543
      0.05000000	      3.34359621	      2.73603196	   -170.93590662	      0.42736354	      0.98230530	      0.67430762	      9.04080130	      6.18217906	      6.26026008	     22.93163730	      0.40023257	      7.32796174	     -9.18834094	     -7.42573689	     32.58253940	     -7.60732112	     -8.18029062	     33.65279860	      0.58735214	    -13.48367478	    -18.73744069	     -7.42573689	    -15.27348143	     -0.25691186	      7.77085256	      8.13177992	    -16.72093484	     -6.71963094	     31.75412765	     90.23608205	     18.53086946	     -6.18797119	      0.79333028	     18.59164158	     87.00193922
      0.06666670	      3.95853319	      3.26060758	   -171.25099108	      0.42785509	      0.97427962	      0.67957473	      9.03934037	      6.43237102	      5.65542660	     23.52295455	      0.41055301	     10.30850101	     -8.19381372	     -7.42788524	     33.56078659	     -7.79347789	     -8.61493689	     29.34508140	      0.51216829	    -11.79441336	    -17.11150513	     -7.42788524	    -13.89674255	      0.22828441	      8.20974761	      8.56009852	    -17.24145995	     -5.23101230	     31.10536108	     89.59031545	     17.52764909	     -5.33404180	     -0.24982232	     15.75733664	     86.61726952
      0.08333330	      4.58013388	      3.60789187	   -171.87798032	      0.42852179	      0.96907252	      0.68437411	      8.84942731	      6.16184768	      4.81411447	     23.68751411	      0.41342511	     12.97147388	     -6.89778968	     -7.42750434	     33.96665437	     -7.73520590	     -8.71761270	     24.43605722	      0.42648965	    -10.48865355	    -15.10460726	     -7.42750434	    -12.57160372	      0.66210973	      8.79351720	      8.95965874	    -17.81993719	     -3.76897223	     30.64832336	     89.22558766	     16.51969171	     -4.66582098	     -1.19825419	     13.79208173	     86.34324191
      0.10000000	      5.44883102	      3.80093695	   -172.72827996	      0.42886405	      0.96597032	      0.68645195	      8.85404512	      5.59442489	      3.93503129	     23.62094478	      0.41226326	     14.52619096	     -6.09556015	     -7.42847178	     34.29687672	     -7.67292152	     -8.96781084	     19.63070325	      0.34262041	     -9.45595827	    -12.58673723	     -7.42847178	    -10.97691427	      0.96201527	      9.33709718	      9.31253348	    -18.33073859	     -1.96513541	     30.34853335	     88.52206671	     15.25526710	     -4.27690202	     -2.20583842	     12.34327362	     85.82452510
      0.11666670	      6.40245691	      3.87097724	   -173.53661833	      0.42870432	      0.96420603	      0.68630950	      8.83547930	      5.02484073	      3.17726357	     23.45773936	      0.40941479	     14.93814174	     -6.08268616	     -7.43024820	     34.58107649	     -7.53053987	     -9.13490247	     15.54959340	      0.27139160	     -8.99021471	    -10.48516155	     -7.43024820	     -9.44006373	      1.02639211	      9.76902786	      9.48749797	    -18.49512123	     -1.16889565	     30.48276237	     88.58736486	     13.68245958	     -4.31105082	     -2.58271795	     11.75236810	     85.93319762
      0.13333330	      7.20152045	      4.13735758	   -174.30085838	      0.42821476	      0.96303332	      0.68562832	      8.61329795	      4.93151966	      2.78462974	     23.54917292	      0.41101060	     15.31979029	     -6.17508164	     -7.46256981	     34.79360033	     -7.69728534	     -9.55607812	     12.67295337	      0.22118476	     -7.95959735	     -7.57178539	     -7.46256981	     -8.20465063	      1.31587742	      8.85734985	     11.34861053	    -18.75111686	      4.11508923	     28.89272649	     86.93505645	     11.39666490	     -4.48695435	     -8.72836220	     11.82888783	     90.03669381
